<svg xmlns="http://www.w3.org/2000/svg" viewBox="0 0 432.47 430.64"><defs><style>.cls-1{fill:#010101;}.cls-2{fill:#050505;}.cls-3{fill:#040404;}.cls-4{fill:#060606;}.cls-5{fill:#070707;}.cls-6{fill:#141414;}.cls-7{fill:#0a0a0a;}.cls-8{fill:#191919;}.cls-9{fill:#101010;}.cls-10{fill:#111;}.cls-11{fill:#090909;}.cls-12{fill:#0c0c0c;}.cls-13{fill:#161616;}.cls-14{fill:#717171;}.cls-15{fill:#0b0b0b;}.cls-16{fill:#eaeaea;}.cls-17{fill:#d1d1d1;}.cls-18{fill:#d2d2d2;}.cls-19{fill:#ddd;}.cls-20{fill:#cbcbcb;}.cls-21{fill:#d4d4d4;}.cls-22{fill:#0e0e0e;}.cls-23{fill:#e0e0e0;}.cls-24{fill:#1a1a1a;}.cls-25{fill:#0d0d0d;}.cls-26{fill:#131313;}.cls-27{fill:#121212;}.cls-28{fill:#fefefe;}.cls-29{fill:#fdfdfd;}.cls-30{fill:#fcfcfc;}.cls-31{fill:#f9f9f9;}.cls-32{fill:#f6f6f6;}.cls-33{fill:#f8f8f8;}.cls-34{fill:#fafafa;}.cls-35{fill:#e6e6e6;}.cls-36{fill:#fff;}</style></defs><g id="Calque_2" data-name="Calque 2"><g id="Calque_1-2" data-name="Calque 1"><g id="_4laIVD.tif" data-name="4laIVD.tif"><path class="cls-1" d="M263.92,192.52c-1.26.3-3.21-1.15-3.61,1.44,0,.13-.76.18-1.17.21-1.15.08-2.73-.52-2.49,1.66a.49.49,0,0,1-.2.31c-2.34-.77-3.55,1.83-5.61,1.86-.73,0-1.39-.07-1.4,1s-.93.65-1.47.66c-3.18,0-6.36.09-9.54,0-1.37-.05-1.94.38-1.79,1.73-.95,3.16-1.33,3.45-4.24,3.39a1.87,1.87,0,0,1-1.78-.92,1.29,1.29,0,0,1,.24-1.72c-.63.16-1.18.1-1.43-.62s.09-1.27-.31-1.84c0-.78-.06-1.55-.05-2.33,0-.4-.09-1,.47-1,2.23.19,1.52-1.42,1.65-2.54.05-.5-.26-1.32.61-1.31,1.25,0,1.08-.81,1.08-1.57,0-.92,0-1.85,0-2.77,0-.34.08-1,.17-1,2.09-.19,1.44-1.76,1.54-3,0-.19.15-.54.22-.54,2.6.09,1.77-1.84,1.91-3.19,0-.21.08-.56.17-.57,2.63-.44,1.2-2.49,1.49-3.81.19-.88-.35-2.09,1.31-2,.42,0,.38-.5.41-.84.13-1.24-.68-2.92,1.54-3.18.09,0,.14-.64.16-1,.06-1.06-.41-2.41,1.54-2.21.72.08.57-.66.59-1.11,0-1,0-2,0-3,0-.35,0-1,.1-1,2.22-.45,1.48-2.21,1.62-3.58,0-.29.12-.6.47-.57,1.55.09,1.21-1,1.2-1.88s-.06-1.75,1.26-1.59c.84.1.88-.48.87-1.09,0-1,0-2,0-3,0-.41.05-1.16.19-1.18,2.74-.54,1.38-2.69,1.42-4a3.74,3.74,0,0,1,2.59-3.26c1.41-.46,1.3-1.09,1.33-2s-.37-2,1.27-2.09c.75-.05.26-1.09.44-1.65.42-1.36-1.16-3.48,1.51-4.05.15,0,.16-.91.18-1.39,0-1.06-.4-2.44,1.53-2.19a.62.62,0,0,0,.36-.13c-.62-2.25,2.14-3.27,2-5.38-.07-.79-.29-1.7,1.11-1.76.94,0,.42-1,.57-1.55.4-1.44-1.12-3.59,1.56-4.24.15,0,.15-.92.13-1.4-.05-1,0-1.79,1.39-1.71,1.18.06.62-1,.74-1.61.19-.88-.58-2.28,1.29-2.25.43,0,.37-.5.42-.84.17-1.2-.74-2.92,1.52-3.18.11,0,.17-.77.18-1.18,0-1.06-.25-2.22,1.51-2,.73.09.6-.64.61-1.1,0-1,0-2,0-3,0-.41.1-1.17.2-1.18,2.16-.19,1-2,1.58-2.94.82-1.39,2-2.55,1.84-4.35,2.74.06,1.26-2.49,2.06-3.27s1.37-2.7,3.24-2.45c.92.13,1.92.18,1.74-1.3,0-.23.13-.66.3-.72,2.52-.83,3.47-3.65,5.41-4.67,1.54-.82,2-3.82,4.6-2.7.61.26.51-.66.78-.92.86-.88,2.25-1.17,2.83-2.42,0,0,.19,0,.2,0,.79-2,2.41-2.43,4.34-2.27.48-2.22,3.59-2.5,3.69-5,1.63-.13,1.81-2.91,4-2.12.71.26,1.16-.69,1.59-.92,1.54-.85,1.66-3.63,4.39-3,1.2.29,1.54-1.84,2.72-2.41.17-.08.18-.49.26-.74,1.88.73,1.63-2,3.25-2.07a7.25,7.25,0,0,0,1.8-2.44c.53-1.5,1.42-1.24,2.24-1.12,2,.28,2.09-2,3.51-2.42-.55-1.79,2.36-1.32,1.95-3,1.21,0,1.6-.91,2.34-1.63.59-.59,1.27-.79,1.33-1.83.06-.81,1-.61,1.38-.48,2.23.7,2.66-1.61,4-2.37s1.51-2.67,3.34-2.8c.12,0,.35-.1.35-.15,0-2.42,2.86-1.65,3-2,.43-1.66,2.66-1.11,2.85-2.78.1-.95,1-.36,1.58-.55,1.36-2.41,3.86-2.06,6-2.53,1.78-.38,3.86.12,5.17-1.7s2.52-3.71,4.41-5.07A3.57,3.57,0,0,1,370,17.6c1.68-.7,3.39,0,5.08,0,1.44,0,1.9-.61,1.79-1.62a3.09,3.09,0,0,1,2.06-3.46A10.55,10.55,0,0,0,381,10.75a1.74,1.74,0,0,0,1.58-1.3,1.3,1.3,0,0,1,.48-.42,2,2,0,0,1,1.59,0,1.66,1.66,0,0,1,.53.34c.84,1.31,1.78,1.62,2.89.29,1.43-1.69,2.25-1.87,3.84-.47s2.75,3.11,2.08,5.47c-.42,1.47.1,2,1.66,2.12.71.05,1.33-.59,2-.2.48.45.83,1.55,1.67.36l.25-.09c1.4-.27,1.89.3,1.77,1.7,0,.56-.5,1.5.67,1.67.94.13.79-.62,1.09-1.14.65-1.11,1.88-.4,2.85-.52s.88.66.88,1.28c0,1.42,0,2.83.05,4.25-.66.54-1.23,1.17-1.83,1.76a1.89,1.89,0,0,1-1.39.78c.65.08,1-.39,1.38-.77.6-.6,1.22-1.18,1.78-1.83,1.34-.19,1.91.34,1.74,1.74a21.18,21.18,0,0,0,0,2.76c0,.48,0,.91.68,1.08,1.18.29,2,2.51,1.36,3.47-.3.45-.74.29-1.14.32-.61.06-.92-.2-.9-.84.08-2.09-1.53-1.23-2.4-1.22-1.89,0-.76,1.57-1,2.41-.3,1.13.36,1.55,1.42,1.36,1.85-.34,2.07.67,2,2.16s.1,3.12-.06,4.66c-.19,1.81.46,2.46,2.21,2.11.24.33.61.57.64.67,0-.11-.41-.33-.7-.61q0-3.08,0-6.14c0-.57-.05-1.13.83-1.14s.82.51.87,1.11c.09,1.17-.65,2.78,1.5,3,.1,0,.18.77.18,1.18,0,1.41,0,2.82,0,4.23,0,.89-.09,1.72,1.24,1.6s.78.87.89,1.49c.18.94-.66,2.4,1.33,2.43.47,0,.36.67.36,1.07,0,1.63,0,3.25,0,4.88,0,.33-.1,1-.2,1-2.49.28-1.33,2.19-1.45,3.39a28.73,28.73,0,0,0,0,5.08c.08,1.1-.88,2.77,1.4,3,.51,0,.17,1,.24,1.54l-.1.26a2.51,2.51,0,0,0-1.07,1.55,1.23,1.23,0,0,1-.43.39c-1.22.15-1.42,1.35-2.11,2a3,3,0,0,1-.66.22c-2.07-.42-2.34-1-1.83-3.76a1.09,1.09,0,0,1,.17-.22s0,0,0,0c-1.23.68-2.32,1.29-.81,2.81a1.76,1.76,0,0,1-.11,2.67c-1.34,1-1.29,2.22-1.29,3.56a7.62,7.62,0,0,1-.49,3.1,1.71,1.71,0,0,1-.37.51c-1,.38-1.09,1.22-1.05,2.11s0,1.86-.06,2.79c.75,2.42-1.51,3.88-1.95,6-.17.79-1.34.79-2,.14s-.86-.53-1.23.1a4.72,4.72,0,0,0-.12,3.21,5.62,5.62,0,0,0,.29,1c.85,2,.68,2.36-1.41,3.13-.77,0-.8,1-1.44,1.19-.85.39-1.84-.13-2.68.41a1.31,1.31,0,0,1-1.09-.14l-.12-.15-.25-.29a1.59,1.59,0,0,1,.2.24c.19.4.53.7.71,1.1.51,1.2.5,2.17-1.05,2.53-1.25.29-.76,1.25-.73,2,.39,1.55-.07,3.14.25,4.7a13.45,13.45,0,0,1,.78,4.4c-.13.73.28,1.73-1.16,1.74-1,0-.69,1.06-.55,1.5.64,2.13-1.39,3.19-2.3,3.76-2,1.23-3.47,2.25-3.31,4.83.09,1.48-1.21.9-1.88.87-1.39-.07-2.25.25-1.9,1.81.47,2.08-1.75,2.37-2.41,3.72s-2.94,1.37-3.22,3.36c-.12.81-2.05.3-1.67,1.81-1.61-.2-1.28,2.05-2.68,2.11-.58,0-.71.4-.66.85.13,1.07-.43,1.17-1.34,1.33-1.08.2-1.06,2-2.45,2.06.09,1-.4,1.41-1.36,1.33.28,2-3,1.09-2.62,3.33.13.78-2,0-1.63,1.57-1.37.26-1.41,2.25-2.94,2.28-1.22,0-.76.93-.86,1.54-.16,1,.59,2.39-1.37,2.4-.44,0-.28.71-.34,1.11-.16,1.07.69,2.68-1.45,2.78a2.41,2.41,0,0,0-.23,1.16c0,1.13.21,2.33-1.62,2.13-.58-.06-.49.56-.52,1-.08,1.27.57,2.91-1.62,3.1-.08,0-.11.65-.16,1-.29.68.3,1,.56,1.48,1,1.91.7,3-1.21,4.11.47.51,1.21.75,1.48,1.47a4.74,4.74,0,0,1-.18,2.53,1.44,1.44,0,0,1-.67.75,1,1,0,0,0-.67,1.14c.15.66.68.82,1.26.84a39.48,39.48,0,0,1,4.35.1c1.75,1.19,1.45,3.06,1.51,4.76a1.6,1.6,0,0,1-1.09,1.68c-1.74.28-3.38,1.61-5.26.69-1-.52-2.08.38-3.07-.08,0,0-.13-.06-.13-.06s0,.11,0,.13a3.6,3.6,0,0,1-.86,3.34c-.74.85-1.73,1.17-2.48.09-1-1.39-2.06-1.11-3.26-.51-2.42-.35-3.7,1.16-4.69,3-.28.51-.64.48-1,.47-.63,0-1.14.07-1.16.85a7.72,7.72,0,0,1-2.16,1.92A3.45,3.45,0,0,0,333,205.1a3.79,3.79,0,0,1-2.34,2.75c-1.8,1-3.47,2.12-5.67,1.68a3,3,0,0,1,1.35,2.33c0,1-.32,2.44-1.46,2.15-2.15-.52-4.4-.38-6.48-1.15a2.32,2.32,0,0,1,.47-3c1.7-1.77,1.46-4.09.67-6a4.69,4.69,0,0,0-4.8-3.11c-1.56.12-3.12-.06-4.26,1.35a1.63,1.63,0,0,1-1.57.45c-1-.68-1.83-1-2.69.38a1.23,1.23,0,0,1-2.31-.2c-.38-2.08-2.17-2.71-3.31-4-.69-.78-1.17-1.4-.46-2.36.74-.52.37-1.28.41-1.94.07-1-.29-2,1.48-2.05,1.23,0,.47-1.34.65-2,.25-1.05-.35-1.37-1.28-1.34-.88-.67-2.55,0-2.84-1.73,0-.2.25-.07,0-.16-4.39-1.39-4.61-1.82-3-6.15.09-.27,0,.07.07-.2.31-.54.82-1.11.06-1.63a.88.88,0,0,0-1.32.14c-.79,1.15-1.88,1.73-3,.86s-3.26-1.71-2.61-4c.08-.26,0,.08,0-.21,0-.72-.18-1.49.47-2.06a11.78,11.78,0,0,1,1.55-.65c1.49-.7,1.94-2,1-3.23-.48-.66-1-1.52-2-1.37s-1.12,1.15-1.47,1.91c-1.16,1.18-2.23.66-3.31-.14-1.48-1.1-2.58-.79-3.42.94a8.54,8.54,0,0,1-.31,3.34,1.25,1.25,0,0,1-2,.21c-.22-.17.06.09-.16-.09a.75.75,0,0,1-.3-.44.5.5,0,0,0,.24.39c1.19,1,.63,1.64-.4,2.15a8.35,8.35,0,0,1-1.82.31,1.09,1.09,0,0,1-.24.07c-.43.18-.87.34-.79,1a6.92,6.92,0,0,1,.16,1.36c-.15.93.68,1.24,1.14,1.78a3.25,3.25,0,0,0,2.11,1.8c1.48,2-.51,2.82-1.41,3.8a6.65,6.65,0,0,0-1.89,2.65,2,2,0,0,1-3.48,1c-.87-.75-1.68-1-2.34,0C268.43,192.65,266.17,192.52,263.92,192.52Z"/><path class="cls-1" d="M169.05,249.41c-.7.48-.09,2.16-1.7,1.83-.36-.07-.48.4-.39.61.94,2.15-1.07,3.21-2,4.47a6.66,6.66,0,0,1-2.48,1.9c-2.18.77-1,2.28-1,3.31-.05,1.33,1.32.47,2,.71,1.22.42,3.2-1.11,3.65,1.47.05.31,1.14.6,1.43-.34.13-.43-.07-1.27.64-1.06,2,.57,3-1,4.39-1.75.63-.35.48-.76.53-1.21s-.14-1-.81-.94-.92-.45-.87-1.08.68-.59,1.13-.6c1.42,0,2.84,0,4.25,0,.85,0,1.78.33,1.95-1.18.11-1,1.31-.44,2-.49.93-.07,1.57.06,1.84-1.32.19-1,1.76-1.57,2.37-2.55,1.45-2.32,3.66-1.56,5.67-1.69.52,0,.81-.27.75-.79-.19-1.46.78-1.34,1.73-1.33,2.13,0,4.26-.08,6.38,0,1.23.07,3.22-.89,3,1.75,1.56.37,2.07,2.65,4.24,2.11a13.69,13.69,0,0,1,4.24,0c1,.08,2.56-.78,2.63,1.34,0,.43.71.32,1.11.32,1.28,0,2.56,0,3.83,0,1,0,2.32-.45,2.26,1.5,0,1,1.1.48,1.71.61.84.17,2.09-.51,2.11,1.21,0,.72.76.47,1.2.49,1.06,0,2.13,0,3.19,0,.48,0,1.09-.07,1.05.68-.05,1.12.71,1.11,1.41,1,1.74-.28,2.26.53,2,2.1,3.17,1.76,6.17,4.07,10.18,2.71,1.54-.52,2.38.41,3.06,1.89.41-.72.76-1.37,1.53-1.6.93-.28,1.39.4,2.06.76,1.56.85,3,2.05,5.06.86,1.25-.72,2.7.61,2.5,2.17-.36,2.77,0,5.59-.87,8.34-.36,1.15-.49,2.31-1.42,3.19-.31.28-.65.69-.55,1.11.71,2.84-1.68,3.53-3.3,4.68a3.89,3.89,0,0,0-1.37,1.21A2.1,2.1,0,0,1,249,287c-.76-.19-1.3.25-1.95.43-2.09.6-2.61,2.59-3.84,3.93-.63.69-1.16,1.34-2.28,1.2-1.28-.16-1.72,2-3.28,1.33-.09.23.2.26.22.43.23,2-.37,2.46-2.39,1.86-.17-.23-.23.23-.09,0,0-.07.08,0,.19.1.92.81.46,1.74.06,2.51-.33.61-.69,1.22-1,1.84,0,.21,0,.42,0,.63,0,1.48-.48,3.29.19,4.36.77,1.22,2.72.31,4.15.49.53.07,1.15-.1,1.18.79s-.64.9-1.27.9h-2.54c-3.43,0-3.47,0-3.37,3.45,0,.69-.67,2,.71,2,1,0,2.8,1.2,3.14-1.13.1-.71.78-.44,1.22-.46,1.27-.05,2.54-.05,3.81-.07s2.33-.28,2.83.86c-.7-1.21.32-1.79,1.26-2.5a1.54,1.54,0,0,1,2.38.46c.7.95,1.61,2,.68,3.09,1.28-.76-.87-2.52.66-3.65,1.29-.95,2.71-.6,4-1,2.13-.65,1.6,2.11,2.91,2.63a1.34,1.34,0,0,1-.81-1.9c.37-1,1.31-1.84,2.2-1.69a11.14,11.14,0,0,0,3.71-.39,7.31,7.31,0,0,1,1-.07,1.79,1.79,0,0,1,1.42.78c.37.45.3-.18.4-.29a3.23,3.23,0,0,1,1.27-1.11c2.66-.94,5.25-2,8-2.74a12.26,12.26,0,0,0,5.84-3.38c1.05-1.12,2.16-2.31,4-1.52a.65.65,0,0,0,.92-.15c3-3.86,7.55-5,11.94-6.24,2.42-.68,3.57.11,4.06,2.3-.41.84.3,2.47-1.6,2.31a6.64,6.64,0,0,0-.14,1.2c0,1.84,0,3.69,0,5.53,0,.87.46,1.95-1.21,2.13-.91.09-.42,1.32-.44,2-.05,1,0,1.67-1.38,1.77-1,.07-1.24,1.6-2.39,2.15-1.46.69-2,2.5-3.44,3.63-1.16.94-2.95.94-3.13,1.45-.56,1.59-2.75,1.17-3.11,3.06-.1.55-1.24,2.63-3.12,2.4-.87-.11-1.77-.24-1.88,1.24-.07.84-1.2.37-1.84.42-1,.08-2-.25-1.92,1.41.08,1.18-1,.61-1.61.73-.9.17-2.22-.55-2.26,1.29,0,.63-.8.4-1.25.41-1.35,0-2.7,0-4,0-.84,0-2-.37-1.9,1.18,0,.14-.29.46-.34.44-2.13-.92-2.89,1.63-4.58,1.81-.17,0-.5.26-.48.3.71,1.88-2.12,1.59-2,3.28,0,.39-1.82.07-2.78.23s-2.51-.77-2.64,1.35c0,.47-1.05.58-1.5-.1-1.18-1.76-3-1.84-3.9-.09-.43.83-1.09.5-1.63.5-5,0-9.93,0-14.89,0-.89,0-1.93-.26-1.78,1.27.1,1-.73.84-1.32.84-2.06,0-4.11,0-6.17,0-.81,0-2-.42-1.9,1.16,0,.46-.38.51-.75.52s-.91,0-.88-.63c.09-1.28-.81-1.05-1.56-1.05-1.27,0-2.55,0-3.82,0-1,0-2.09.28-1.91-1.38.1-.89-.66-.73-1.2-.74-1.34,0-2.69,0-4,0-1.05,0-2.24-.26-2,1.51.08.57-.46.6-.89.61s-.85,0-1.27,0H141.57c-1.11,0-2.5.47-2.38-1.59.05-.8-.87-.5-1.37-.51-2.69,0-5.38,0-8.08,0-.76,0-1.57.17-1.57-1.08,0-.88-.82-.59-1.32-.6a45.47,45.47,0,0,0-4.67,0c-2.49.2-3.91-1-4.63-3.24a1.8,1.8,0,0,0-.27-.51c-1.88.79-1.49-2.11-3.09-1.89-.54.08-.43-.62-.44-1q0-3.39,0-6.8c0-.27.07-.76.17-.78,2.75-.51,1.14-2.65,1.48-4,.21-.84-.21-1.95,1.32-1.76.64.08.86-.29.85-.9,0-.4-.1-1.11.34-1.11,1.79,0,1-1.37,1.42-2.16.82-1.61,2.15-3,1.84-5,1.87-.06,2.43-1.88,3.7-2.75.34-.83-.26-1-.8-1.44-1.53-1.13-1.51-1.77-.12-3.16,2.3.11,3.45-1.32,4.26-3.2.08-.18.15-.53.23-.53,2.53-.08,2.8-3.24,5-3.67-.37-2.17,3.5-2.09,2.55-4.77-.11-.29,1.42-1.7,2.1-2.71.87-1.28,2.39-2.07,3.56-3,.79-.67,1.08-2.31,2.62-2.2.58.05.41-.6.49-1s.17-.93.27-.93c2.52-.12,2.77-3.29,5-3.69-.09-2.66,1.93-1.72,3.31-2.07,1-.23,1-2,2.35-1.92-.07-1.89,1.34-1.29,2.34-1.41.61-.08,1.48.39,1.58-.82.09-1-.33-1.23-1.3-1.36-1.31-.17-2.77-2.82-2.52-4.18.06-.33,0-.74.47-.82,2.45-.38.81-2.22,1.15-3.34.16-.54-.51-.53-.92-.54s-.72-.34-.7-.83,0-.82.45-.8c1.72.06,1.2-1.19,1.23-2.06s-.18-2.07,1.43-1.86c.74.09.69-.53.7-1a16.44,16.44,0,0,1,0-2.33c.28-1.82-.47-2.45-2.21-2.15-1.27.22-1.82-.27-1.66-1.62a12,12,0,0,0,0-2.54c-.21-2.08,0-3.52,2.77-3.15,1.33.17,2.28-1.63,2.6-2.46.52-1.39,2.3-1.46,2.38-2.95,1.06.1,1.38-1.1,1.77-1.28,2.12-1,2.25-3.92,4.69-4.38-.31-2,3.17-1.18,2.48-3.43,0-.05.24-.26.3-.24,2.13.93,3.07-1.25,4.49-1.95.75-.36,2.13-1.29,2.27-2.38.15-1.25.7-1.31,1.63-1.27s1.84,0,2.76,0c.67,0,.88-.43,1.32-.86,1.06-1,1.64-2.81,3.77-2.63,1.22.1,3.22,1.09,3.61-1.42,0-.11.63-.18,1-.19,1.32,0,3,.47,2.78-1.88,0-.4.71-.19,1.11-.19.51.71,2.12.48,1.7,2-1.44,1.06-2.78,2.37-4.83,1.88.26,1.67-2.68,1.41-2,3.33l-.13.28c-.87.78-2.2,1-2.76,2.18a1.15,1.15,0,0,1-1.11.49c-2.17-.21-3.08,1.57-4.41,2.69a1.41,1.41,0,0,1-.45.39c-2,.3-3.29,1.8-4.61,3.11-1.56,1.54-3,3.11-5.47,3-.72,0-1.6.17-1.79.89-.81,3.12-3.53,4.77-5.3,7.14-.48.63-1.64,1.05-1.28,2s1.49.54,2.28.75c2.65,1,3.59,2.44,3.06,4.68a3.6,3.6,0,0,1-.27.78,2.49,2.49,0,0,1-1.82,1.16C169.06,248,169.57,248.52,169.05,249.41Z"/><path class="cls-2" d="M300.58,295h-2.07c-.25-.84.76-.53.81-1a3.2,3.2,0,0,0-.21-.28c-.86.58-2.14-.82-2.8.58-.8,1.66-1.47,2.13-2-.73-.29,1.93-.75,2.92-2.26,1.59a.67.67,0,0,0-.57,0c-.92,2.45-3.55,2.18-5.3,3.3-1.23.79,0,1.88-.67,2.77-1.59-.61-3.63-2.26-4.76-.06-.84,1.62-3.9,1.28-3,4-1.25.1-.95-1.17-1.66-1.51a3.47,3.47,0,0,0-.3.52c-.27.69.75,1.59-.26,2.11s-1.49-.41-2.22-.78a2.38,2.38,0,0,0-3.29,1,1.13,1.13,0,0,1-1.25.67c-2.67,0-4.33,1.72-4.21,4.14-.66-.23-.71-.81-.82-1.36s.31-1.62-.7-1.36c-.63.17-2-1-2,.78,0,.58-.34.39-.72.23-.65-.27-1.35-.4-2-.67-1.07-.43-1.28.67-1.86,1.06s0,.62.34,1c.68.76.24,1.69-.26,2.6.13-2.09-1.63-2.81-2.69-4.28-.22.94,0,1.75-.77,2.49-.41-1-.93-2-2.21-1.51s-1.11,1.33-.71,2.4c.24.66-1.6.87-.65,1.94-.34,0-.72.17-1,.05a.7.7,0,0,1-.32-1.07c1.32-1.88-.75-2.14-1.44-3-.24-.33-.66-.11-.92.17a1.27,1.27,0,0,0-.33,1.55,1.87,1.87,0,0,1,.36,1.77,1.1,1.1,0,0,1-1.38.69c-1.22-.2,0-.61-.05-.91-.13-1.41-1.35-1.13-2.19-1.33-.33-.08-.74.38-1.28,0l.83-.91c-.28-1.67.87-1.63,2-1.65.95,0,2,.29,1.91-1.37-.09-1,.84-.73,1.4-.74,2.69,0,5.39,0,8.08,0,.75,0,1.59.21,1.59-1.06,0-.88.81-.61,1.31-.62,2.05,0,4.11,0,6.16,0,.69,0,1.47.16,1.45-1,0-.9.71-.69,1.24-.71,1,0,2,0,3,0a2.88,2.88,0,0,0,1.16-.25c0-2.27,1.76-1.27,2.8-1.41.72-.1,1.26-.16,1.16-1.06-.14-1.26.78-1.23,1.52-1.07,2.24.5,2.72-1.67,4-2.62.28-.22.33-.8.93-.81,1.24,0,2.91.51,2.59-1.79,1.85.23,2.09-2.69,4.26-2.09a12.74,12.74,0,0,0,3.6,0c.42,0,1.17-.07,1.19-.18.26-2.27,2-1.32,3.19-1.51.35-.06.86,0,.81-.47-.2-1.95,1.12-1.71,2.3-1.65.74,0,1.24-.11,1.2-1,0-.73.55-.68,1.05-.68s1,0,1,.7c0,.53.05,1,.77,1s.94-.37,1-1c0-.92.78-.61,1.28-.66,1-.09,2.08.4,2.27-1.35.08-.73,1.37-.32,2.11-.34.92,0,1.71,0,1.58-1.29-.1-1,.73-.77,1.32-.87,1-.16,2.56.74,2.61-1.38,0-.4.72-.26,1.13-.31.91-.12,2.31.55,2.2-1.3,1.76,0,2.15-2.65,4.2-2.13.4.1,1.24.21,1.2-.45-.14-2,1.17-1.78,2.33-1.62,1.82.24,1.69-2.19,3.24-2.23-.11-1.55,1-1.16,1.87-1.2,1,0,1.84.22,2.23-1.41.17-.71,1.32-2.72,3.32-2.45s2.89-1.47,3.61-2.87c.37-.71.61-.94,1.29-.93,1.35,0,2.7,0,4,0,.91,0,2.09.39,2.06-1.26,0-.44.5-.42.84-.42h5.31c.41,0,.93-.06,1,.54s.18,1.18,1.07,1.17,1.15-.29,1.13-1.1c0-.61.46-.61.9-.6s.74.09.73.55c-.06,1.6,1.14,1.11,1.93,1.11,6.59,0,13.18,0,19.78,0,1.06,0,2.33-.41,2.23,1.52,0,.94,1,.57,1.52.58,3.19,0,6.38,0,9.57,0,.61,0,1.68-.37,1.54.79-.11.87.92,2.22-.83,2.6-.25.05-.7.21-.7.31.11,2.78-2,1.69-3.26,1.77-2.19.13-4.39.05-6.59,0-.5,0-1.36.24-1.28-.63.18-1.79-1-1.48-2-1.48h-3.4c-1,0-2-.18-1.88,1.42.09.89-.72.69-1.23.69q-5.11,0-10.21,0c-.44,0-1.25.22-1.2-.47.14-2.21-1.41-1.62-2.55-1.63-5.45,0-10.91,0-16.37,0-.89,0-1.76-.09-1.6,1.25.08.59-.2.89-.86.88s-.83-.34-.83-.92.15-1.16-.76-1.21-.92.6-1,1.25c0,.26-.11.71-.25.74a5.29,5.29,0,0,0-3.67,3.27c-.1.2-.63.22-1,.27-1.2.18-3.06-.71-2.81,1.77-1.65-.27-2.11,1.54-2.55,2.2-1.16,1.71-3.19,1-3.94,1.75a5.43,5.43,0,0,1-3.66,1.66c-.86.12-.45,1.37-.4,2.06.11,1.34-.39,1.8-1.68,1.65a5.7,5.7,0,0,0-2.33,0c-1.74.55-3.05,2.34-5.18,1.84.52,1.74-1.75,1.65-1.95,3-.17,1.17-1.26.49-1.93.62s-1.92-.38-1.92,1.19c0,.73-.72.51-1.17.52C303.42,295,302,295,300.58,295Z"/><path class="cls-3" d="M350.31,192.9a3.31,3.31,0,0,1,4-.63c1.47.77,2.73-1,4.19-.37.07-.32.05-.69.45-.83-.71-1.27.37-2.81-.58-4a1.16,1.16,0,0,1,.17-.59c1.88-2.55,1.72-3.18-1.18-4.61-.81-1.72-2.43-1-3.75-1.25a3.4,3.4,0,0,1-3.1-1.48c3.44-.45,3.95-1.59,2-4.39-.27-.39-.82-.71-.43-1.26.7-1,.87.77,1.49.33a12.81,12.81,0,0,1,3.94,3.71c.08.18.29.48.33.46,2.13-.9,3.28,1.1,4.46,2,.9.67,2.92,1.37,2.43,3.44-.33,1.36.19,1.94,1.76,1.93,12.9-.06,25.8,0,38.69,0,.82,0,1.68.21,1.74-1.17,0-.92,1-.5,1.57-.51,3.75,0,7.51,0,11.27,0,.91,0,1.72,0,1.58-1.28-.1-.84.54-.84,1.12-.84,2.91,0,5.81,0,8.72,0,1.79,0,1.06,1.28,1.16,2.11s.17,1.83-1.31,1.75c-2.05-.1-4.11,0-6.16,0-.47,0-1.3-.17-1.32.32-.1,2.11-1.64,1.28-2.64,1.35-1.62.1-3.25,0-4.88,0-1.05,0-2.25-.27-2,1.5.08.58-.42.61-.88.62s-.74-.23-.77-.76.23-1.33-.83-1.35-.88.7-.88,1.3c0,1.06-.8.8-1.37.81-2.69,0-5.39,0-8.08,0-.7,0-1.62-.32-1.64,1,0,1-.92.68-1.47.68-2.62,0-5.24,0-7.86,0a2,2,0,0,0-1.88,1c-.92,1.18-2,3.23-4.29,2.41-.32-.11-.93-.17-.94-.29-.14-2.38-2-1.08-3-1.39-.18-.05-.57,0-.59.09-1,3.11-3.52,1.08-5.28,1.56-1,.28-2.51-.45-2.38,1.62.05.81-.87.52-1.36.53-2.7,0-5.39,0-8.08,0-.75,0-1.66-.21-1.58,1.06a.8.8,0,0,1-.26.5c-1.94-.53-3,1-4.37,1.81-.35.2-.91.13-.84.69.23,1.79-1,1.45-2,1.46-1.77,0-3.55-.09-5.31,0-1.37.09-1.79-.43-1.62-1.69a10.66,10.66,0,0,1,0-1.27c.71-2.43-.61-2.84-2.57-2.67.54-1.31,2.05-1.09,3-1.83.51-.41.87,0,.75.72-.09.5-.43,1.33.43,1.35s1.63-1.12,1.33-1.57c-.92-1.39.5-1.4.9-2Z"/><path class="cls-4" d="M300.11,196.38c.58,1.67,2.57,2,3.33,3.58.22.45.55,0,.76-.31s.54-1,1.1-.52.05.92-.17,1.36-.31.64-.48.95c-.27.51-.29,1,.29,1.24s.55-.5.84-.76c.05,0,.07-.11.12-.17.52-.64.1-2.08,1.15-2,.84,0,1.07,1.32,1.57,2.05a2.71,2.71,0,0,1-1.6,3.09c-1.45.81-2.3,4-1.76,5.75a4.65,4.65,0,0,0,4.27,2.9c2.48-.1,5.11.72,7.37-1.12.6-.48,1.37-.11,1.88.49,1.43-1.46,2.92-.67,4.39-.1.68.26,1.55.89,2,0s-.25-1.88-.75-2.73c0-.06-.48,0-.5.08-.22.72-.58.69-1.06.26a1,1,0,0,1-.3-1.15c.23-.53.75-.18,1.11-.3,1.9-.63,4.22.06,5.67-2.09.42-.63,2,.08,2.42-1.2.18-.54.63-1.06-.28-1.32-.51-.14-1.37,0-1.15-.84s1-.6,1.63-.39c.33.12.65.29,1,.09-.51-1.6-.12-1.92,1.52-1.87.84,0,1.58-.95,2.59-.77,0,1.06.05,2.12.07,3.18,0,.78.15,1.63-1.1,1.54-.17,0-.49.16-.51.28-.33,2-1.67,3-3.51,3.63-.86.3-.39,1.39-.38,2.1,0,1.1-.15,1.68-1.47,1.65-1.78-.05-3.56,1.87-3.67,3.7a4.57,4.57,0,0,1-.09,1c-1.54.13-1.91,1.36-2.64,2.39-.26.37-1.15.39-1.15,1.29,0,.61-.59.54-1,.5-2.52-.26-3.79,1.2-4.52,3.33-.2.57-.6.49-1,.5-.59,0-.68-.42-.65-.87.06-.86-.18-1.28-1.17-1.26s-1,.53-1,1.23c.07,1-.63.91-1.27.91-2.69,0-5.38,0-8.07,0-.44,0-1.25.21-1.2-.47.13-2-1.17-1.75-2.33-1.62-1.4.16-1.78-.48-1.58-1.7.22-1.42-.4-1.94-1.76-1.72-1.64.27-2.34-.35-2.09-2a13,13,0,0,0,0-2.33c0-.76.16-1.23,1.05-1.15.61.05,1.1,0,1.08-.89s-.59-.83-1.15-.81c-1.36,0-1-1-.93-1.64s-.74-2.1.82-2.14c1.29,0,1.29-.7,1.27-1.61,0-1.28,0-2.55,0-3.83,0-.84-.36-1.91,1.18-1.91.72,0,.48-.74.5-1.19,0-1.06.06-2.12,0-3.18S299.26,196.19,300.11,196.38Z"/><path class="cls-5" d="M169.05,249.41c-.83-1.25-2.9-1.89-1.89-4.21.52.57.8,1.82,1.71,1.26s.37-1.81.56-2.73c.15-.7-.51-1.39-1.58-1.06-.64.2-.63-.32-.5-.77.66-1.33,2.06-1.81,3.11-2.69,1.3-1.11,2.5-2.18,2.8-4,.26-1.57,1.7-2.32,2.8-3.25,1.25-1.06,2.49-2.08,2.71-3.86.07-.59.34-1.28.88-1.33,2.07-.21,2.75-2,3.9-3.24l-.06.06c1.74-.95,3.08-2.47,5.31-2.78,1.39-.2,2.44-1.86,3.69-2.81l-.05.07c1.13,0,2.27,0,3.4,0,.94-.05,2.22.52,2.26-1.3,0-.58.81-.38,1.27-.38,4.6,0,9.21,0,13.81,0,.71,0,1.45-.11,1.43,1,0,.9.74.67,1.25.68,1.06,0,2.13,0,3.19,0,.4,0,1-.09,1,.48-.17,2.22,1.45,1.42,2.54,1.66s3-1.06,3.24,1.42c.05.44,1,.24,1.57.24,3.12,0,6.25.12,9.36,0,1.88-.09,1.89,2.06,3.33,2.41a1.71,1.71,0,0,1,0,.78c-1.44.34-1.46,2.5-3.34,2.41-3-.15-6,0-8.92-.06-.93,0-2.22.55-2.27-1.28,0-.6-.81-.38-1.27-.39-1.27,0-2.55,0-3.82,0s-2.69.57-2.55-1.63c0-.68-.76-.46-1.21-.47-1.41,0-2.83,0-4.25,0-.8,0-1.73.27-1.76-1.13,0-.85-.85-.55-1.34-.55-3.34,0-6.67,0-10,0-.34,0-1,0-1,.11-.64,2.65-2.76,1.47-4.23,1.51s-1.85.62-1.66,1.89c.22,1.48-.19,2.3-1.9,2-.76-.12-1.59-.17-1.55,1.07,0,.76-.65.57-1.11.61s-.93,0-.94.58c0,.91,0,1.74-1.3,1.61a.39.39,0,0,0-.31.23c-.27,1.39.28,3.05-1.73,3.88-.3.13-.88,1.08-1.74,1.54a5.77,5.77,0,0,0-2,2c-.44.89-1.41,1-1.56,1.42-.66,1.67-3.63,2.11-2.52,4.68.15.34-.21.62-.62.66-1.28.1-2.92-.49-3.1,1.65-1.52-.22-1.8.68-1.93,1.93C170.12,249.67,169.45,249.42,169.05,249.41Z"/><path class="cls-5" d="M234.6,300.58c-.69-.75-1.93-1.44-.13-2.35.53-.26,1.1-.89.7-1.34-.79-.88-.65.29-.95.56-.11.1-.56,0-.75-.15-.61-.48.05-.89.18-1.29s.72-.27,1.12-.32c.8-.09,2.11.52,2.28-.39a2,2,0,0,0-1.64-2.41,1,1,0,0,1,1.46-.24,2.6,2.6,0,0,0,.94.41c1,.07,5.45-3.36,5.72-4.38s.64-1.84,1.95-1.79c1.64.07,1.86-1.64,2.8-2.44.5.21.51.66.64,1.06.38,1.2,1.06.81,1.44.09.59-1.11.34-2.9,2.66-2.16.52.17,1.81-1.1,2.29-2,.74-1.33-.89-.74-1.39-1.29,3.27-1.9,3.48-5.45,3.61-8.43a45.88,45.88,0,0,1,.4-4.64c.11-.71-.13-1.75-1.36-.92-2.07,1.41-3.73.64-5.2-1-.47-.54-.87-1.2-1.73-.8-1.13.52,0,1,.06,1.52s.17,1-.62,1c-1.34.07-3.23,1.06-2.51-1.8a1.09,1.09,0,0,0-.71-1.19c-.7-.15-.69.54-.88,1a.8.8,0,0,1-1,.48,50.15,50.15,0,0,1-8.73-3.12,1.16,1.16,0,0,1-.61-1.74c.85,0,1.7,0,2.55.05.34,0,1,.05,1,.17.55,2.67,2.65,1.33,4,1.47,2,.21,4.11,0,6.16.09,1.1.07,2.87-.91,3,1.42a2.59,2.59,0,0,0,1.17.23q5.94,0,11.9,0c.41,0,.84.09,1.16-.31,1.58-2,1.91-1.55,4.15-.06a2.81,2.81,0,0,1,1.45,2.86c0,.75-.62,1-.93,1.45-.84,1.18-2.95,1.59-2.49,3.66.3,1.34-.28,2-1.7,1.77s-2.42.21-2.13,2c.11.68.16,1.47-1,1.41-.73,0-.68.54-.71,1s.09,1-.47,1c-1.71,0-1.1,1.22-1.23,2.08-.08.5.21,1.49-.59,1.3-2-.49-3,1-4.39,1.77-.62.36-.53.76-.54,1.21s-.16,1-.83.93-1.42.08-1.33,1.1a1.09,1.09,0,0,1-.11.37c-2.26-.62-3.3,2.12-5.39,1.94-1-.08-1.63-.09-1.82,1.32-.13,1-2,2.39-2.19,2.34a3.86,3.86,0,0,0-4.39,2c-.51,1.57-2.73,1.93-2.3,4C237,300.57,235.32,300.12,234.6,300.58Z"/><path class="cls-5" d="M199.26,212.83c-.7-.56-1.49-1-1.7-2,.87-.24,2.32.46,2.21-1.38,0-.11.3-.36.43-.34,2,.26,1.71-1.19,1.59-2.31-.14-1.41.5-1.7,1.72-1.59a21.52,21.52,0,0,0,2.54,0c.34,0,1,0,1-.15.55-2.63,2.63-1.23,4-1.52.83-.17,1.81.25,1.91-1.24.06-.84,1.05-.46,1.61-.46,4.1,0,8.2-.15,12.29,0,1.84.08,2.38-.55,2.24-2.19,1.39-.14-.22,2.29,1.48,1.76a18.44,18.44,0,0,1,2.61-1,17.55,17.55,0,0,1-1.46,2.11c-.26.27-.86.24-.52.84a.72.72,0,0,0,.91.36,7.27,7.27,0,0,1,2.07-.16c2-.22.5-1.61.72-2.5.66-.49,1.12.33,1.71.33.52.74,1.29.4,2,.41,4.18,0,8.36,0,12.53,0,.75,0,1.82-.4,1.79,1.06,0,.75.64.6,1.1.62.71,0,1.43-.07,2.12,0s1.83-.53,2.21.55-1.18.91-1.3,1.27c-.35,1.13-1.68,1.89-1.79,2.39-.38,1.71-1.42,1.27-2.36,1.28-3.12,0-6.23,0-9.35,0-.77,0-1.73.34-1.78-1.09,0-1-1-.57-1.53-.58-2.55,0-5.1,0-7.65,0-.71,0-1.52.12-1.39-1s-.73-1.12-1.51-1.12h-11.9c-.48,0-1.35-.13-1.35.27,0,3.13-2.36,1.49-3.68,1.81a10,10,0,0,1-2.33,0c-.34,0-1,0-1,.11-.45,2.23-2.38,1.15-3.52,1.72-.84.42-2.16,1.6-2.2,2.19-.13,1.9-1.26,1.5-2.32,1.51C200.67,212.9,200,212.85,199.26,212.83Z"/><path class="cls-4" d="M296.28,181.49c-1.25,1.6-.32,3,.48,4.37.13.22,1,2.34,1.6,0,.15-.58.87-.53,1.27-.3.69.4-.06.64-.23.92-.39.66,0,1,.47,1.38s1,.75,1.5,1.12c-5.36,0-10.72.06-16.09.06-.49,0-1.33.25-1.29-.62.11-2.36-1.65-1.47-2.64-1.43-1.49.08-.58,1.42-.81,2.17-.15.5.08,1.6-.37,1.46-2.69-.81-4.06,2.63-6.72,1.89-.88-.24-2.37-.63-2.4,1.31,0,.43-.7.33-1.1.33-1.48,0-3-.1-4.45,0s-1.74-.48-1.58-1.69c.29-.71.28-1.33,1.61-1.19,1.72.18,3.53-.18,3.86-2.78.26-2,1.6.68,2.37-.16a3.49,3.49,0,0,0,.68.79c.53.34.76,1.33,1.71.83a1.72,1.72,0,0,0,.89-1.78c-.09-1.09-.07-1.69,1.38-1.92a3.09,3.09,0,0,0,2.4-2.81c-.72-.57-1.22-1.42-2.19-1.66-2,.34-1.59-1.06-1.61-2.17a1,1,0,0,0,0-1.61l-1-1.19c-.05-1.08,1.92,1,1.43-.91a.84.84,0,0,1,1.26-.12c.58.48,1.29-1.29,1.95.08a2.24,2.24,0,0,0,.19-1.31h1.63c1,0,2.1.06,2.27-1.27.2-1.62-1.11-2.06-2.27-2.56l-1.08-1c.79-.87,3.1,1,2.74-1.65-.06-.42.39-.22.6-.08a3.38,3.38,0,0,0,3.29,0c.5,1-.64.83-.7,1.4.85.26,1.5,1,2.51.85,1.81-.59,2.54-.06,2.53,1.8a2.42,2.42,0,0,1-.86,2l0,1.8c-.67.63-1.45,1-1,2.35s-.36,2.27-1.93,2.28a15,15,0,0,0-2.32.06c3.27-.24,6.55-.11,9.82-.17C294.91,180.44,295.94,180.24,296.28,181.49Z"/><path class="cls-5" d="M363.5,24.09c.07,1,.13,2,.19,3.1-1,0-1.16-.84-1.73-1.08-.32-.13-.91-.44-.91-.42-1.37,2.58-4.72-.5-6.07,2.12a.56.56,0,0,1-.92.07c-.71-1.28-1.4-.25-2.1-.05A4.1,4.1,0,0,1,356,24c.76,0,1.67.2,1.56-1.07,1.76-.1,2.12-2.05,2.69-2.94.82-1.28,2.3-1.41,3.1-2.78s2-3.39,3.41-3.9c1.57-.58,2.21-3,4.49-2.14.91.36.74-1.27.82-1.26,2.17.48,1.64-2.61,3.42-2.56-.11-1.56,2.24-1.36,2.1-2.94,2,.27,1.1-3.16,3.33-2.58,1.39-3.2,4.2-1,6.29-1.62.49-.14,1.33-.3,1.38.75s-.64.89-1.27.92c-1.23.05-2.73-.52-2.7,1.76,0,.67-1.23.25-1.89.36s-1.34-.22-1.36.83.71.86,1.31.87c1.2,0,2.41,0,3.61,0,1,.06,2.4-.61,2.42,1.35,0,.43.7.33,1.11.33h4c1,0,2.25-.29,2,1.49-.08.57.41.62.87.62s.82-.2.78-.74c-.08-.92.13-1.47,1.25-1.38,1.38.1.85,1.1.86,1.73.05,2.55,0,5.11,0,7.66l.07,0a1.38,1.38,0,0,1-2.11,0c-1.51,2.11-3.22.89-4.86.26-.52-.19-.85-.46-.25-1.23,1.49-1.88.1-3.72-.65-5.36a1.83,1.83,0,0,0-3.15-.49c-1.38.47-2.75.83-3.93-.45l.06.06a1,1,0,0,0-1.76,0l.06-.06c-.57.57-1.14,1.12-1.72,1.68.47,1.95-1.38,1.8-2.29,2.44-.71.49-1.7.38-1,1.86s-1.31,2.83-3,3.16-3.12-1.48-4.46.22l-.43-.45c-.8-1.68-.54-2.46,1.18-2.56,2-.12,3.35-.57,3.64-2.87.12-1,1.88-1.27,1.68-2.62,0,0,0,0,0,0,.12,1.61-1.39,2.14-2.19,2.92a12.78,12.78,0,0,1-3.77,2.53c-2,.89-3.54,2.8-5.2,4.36A7.23,7.23,0,0,0,363.5,24.09Z"/><path class="cls-4" d="M394.18,110c-.8-.3-1.12-.83-.71-1.63.15-.3.48-.49.44-.9s-1.09-.9-.08-1.3c.66-.27.91.49,1.32.84a5,5,0,0,0,.78.44c-.2-.72-.35-1.24-.5-1.77.6-.38,1.57-.29,1.69-1.3.35-3.42,1.78.66,2.48-.36.93,0,1.11-.68,1.34-1.34-.28-.35-1.11-.63-.75-1,.79-.88,1.3.59,2.24.49-.27-.93-1-1.73-.64-2.71a4.82,4.82,0,0,0,0-4c.22-.28.38-.67.66-.8.78-.38-1.14-1.62.51-1.58,1.16,0,.77,1.15,1.08,1.77a1.1,1.1,0,0,0,1.17.71c-.56-1.59-1-3.08,1.34-3.57.5-.11-.48-1.46.37-2s.81-1.6.85-2.49c.05-1.09-.18-2.23.86-3l-.06,0a3,3,0,0,0,1.1-2.8c-.18-2.8,1.15-4.55,3.71-5.51a2.4,2.4,0,0,0,.78-.68l-.05.06,2.18-2.19-.06.06c.59-.58,1.18-1.17,1.76-1.76l-.05.07c.74-.14,1.5.24,1.84-1.1s1.92-.52,2.94-.59c1.19-.08.71,1,.75,1.58.06.86.33,2-1.23,1.8-.24,0-.72.15-.73.24-.07,2.53-3.17,2.8-3.74,5-.14.53-1.32.28-2,.21-1.31-.12-1.76.32-1.69,1.65.05.88.66,2.24-1.21,2.29-.66,0-.42.78-.43,1.23,0,1.41,0,2.83,0,4.25,0,.82.21,1.6-1.14,1.76-1,.13-.47,1.28-.54,2-.09.89.22,2-1.3,1.78-.85-.1-.85.53-.85,1.11a18.15,18.15,0,0,1,0,2.76c-.25,1.79-2.36,2.87-1.95,4.94-2.21,0-1.22,1.7-1.43,2.75-.09.45.14,1.2-.58,1.13-1.69-.18-1.61.86-1.55,2,.05.81.07,1.46-1.12,1.56-1,.1-.46,1.14-.57,1.75-.15.87.43,2-1.24,2.13-.91.11-.42,1.33-.44,2,0,1,.05,1.89-1.39,1.69-.51-.07-.78.22-.76.75.05,1.36-1,.81-1.66,1-1.23.08-.79-1.11-1.24-1.63s-.83-1.11-1.26-1.69c.07-.87,1.29.91,1.17-.46.1-.46.5-.92.4-1.34-.44-2,.73-3,2.17-3.85l-.2.19A2.08,2.08,0,0,1,394.18,110Z"/><path class="cls-6" d="M249.07,379.15c.92,0,1.84.07,2.76.07.65,0,1.14.12,1,.92s.28,1.31,1.21,1.22c.56-.06,1,.13.9.82a.76.76,0,0,1-1.06.7c-1.55-.41-3.75,1.24-4.64-1.44-.07-.21-.91-.22-1.4-.22q-12.22,0-24.45,0c-.84,0-1.73-.15-1.85,1.13-.06.68-.73.55-1.2.56-1.27,0-2.55,0-3.83,0-.91,0-1.78-.25-2.3,1.16-.43,1.15-2,.4-3.09.52s-2.3-.34-2.36,1.52c0,1-1.13.5-1.76.62-1.39.29-3.16-.85-4.06,1.45-.28.71-2,.16-3,.26s-2.05-.37-2.22,1.2c-.06.64-.77.47-1.24.49-1.21.05-2.7-.36-2.59,1.71,0,.11-.28.33-.45.35-1.28.2-2.53-.18-3.44,1.59-.41.81-3-.2-4.05,1.77-.3.57-2.55-.2-3,1.66,0,.15-.91.16-1.4.16-1.07,0-2.23-.19-2.1,1.5a.5.5,0,0,1-.51.56,3.94,3.94,0,0,0-4.1,1.76,3.78,3.78,0,0,1-4,1.79c-.4-.08-.62.31-.61.7,0,2-1.45,1.26-2.42,1.31s-.83-1.13-.68-1.16c1.44-.36,1.47-2.59,3.31-2.37,2.15.26,3.1-1.44,3.78-2.92.5-1.08,1.14-.81,1.83-.88.92-.09,2.08.33,2.18-1.24,0-.41.5-.43.85-.46,1.12-.07,2.51.39,2.72-1.46,0-.12.76-.19,1.17-.24,1-.13,2.34.48,2.55-1.35.06-.5.85-.34,1.33-.35,1.17,0,2.52.33,2.45-1.64,0-.51.61-.47,1-.49,1.07-.05,2.39.34,2.42-1.47,0-.13.43-.34.67-.36,1.26-.13,2.75.48,3.28-1.56.09-.32,2.11-.14,3.23-.17,1,0,2.11.28,1.91-1.38-.08-.71.48-.74,1-.74,1,0,2,0,3,0,.42,0,1.16,0,1.2-.14.76-2.7,2.94-1.2,4.47-1.53.69-.14,1.34.05,1.44-1s1.23-.51,1.89-.69c1.23-.34,3.33,1,3.31-1.79,0-.53,1-.33,1.51-.33,3.83,0,7.66,0,11.48,0,.76,0,1.78.39,1.8-1.06,0-.88.82-.6,1.32-.61,2,0,4,0,6,0,.83,0,1.45-.11,1.79,1.14s1.84.36,2.81.54a3.42,3.42,0,0,0,.84-.05A2.73,2.73,0,0,1,249.07,379.15Z"/><path class="cls-1" d="M157.49,410.72c-.33,1.46-2.36,3.23-3.78,3.21-1.1,0-2,.06-1.9,1.5a.54.54,0,0,1-.51.58c-1.28.17-2.52-.19-3.43,1.57-.42.81-3-.17-4.07,1.76-.31.56-2.38.16-3.2,1.69-.25.47-2,.13-3.06.15-.91,0-1.93-.19-1.87,1.28,0,.81-.59.84-1.18.84-1.35,0-2.69,0-4,0-1,0-2.34-.5-2.57,1.32-.06.5-.84.35-1.32.36-1.42,0-2.84,0-4.25,0-.72,0-1.4-.06-1.54,1s-1.09.7-1.72.7c-4.82,0-9.63,0-14.45,0-1,0-2.25-.24-2.13,1.46,0,.13-.11.37-.15.37-1.84-.11-3,1.52-4.51,1.86-2.1.46-4.37.13-6.57.13-.47,0-1.07.08-1.09-.66s.57-.66,1.06-.7c1.2-.1,2.76.59,2.87-1.67,0-.78,1.22-.32,1.87-.46,1.32-.29,3.21.93,3.79-1.45.05-.18.9-.18,1.37-.25s1.35,0,1.4-.2c.64-2.43,2.59-1.42,4-1.46,4.32-.11,8.65,0,13,0,.87,0,1.75.08,1.71-1.23,0-1,.71-.79,1.34-.91,1.58-.3,3.55,1,4.71-1.5.27-.57,2.66-.1,4.07-.21,1.06-.07,2.49.63,2.81-1.29.08-.5.85-.36,1.33-.37,1.34,0,2.69,0,4,0,.92,0,1.77.24,2.29-1.17.41-1.12,2-.39,3.09-.5s2.41.34,2.31-1.53a.54.54,0,0,1,.53-.56c1.3-.12,2.9.33,3.24-1.66,2.62.81,4-2.59,6.63-1.89Z"/><path class="cls-7" d="M124,298.9a2.32,2.32,0,0,0,.5,2.52,1.62,1.62,0,0,1,.42,2.08c0-.76-.54-.85-1.17-.84-1.48,0-3,0-4.46,0-.81,0-1.75-.24-1.73,1.14,0,.73-.71.54-1.15.55-1.49,0-3,0-4.46,0-.89,0-2-.43-2.09,1.24,0,.66-.78.43-1.22.44-1.42,0-2.83,0-4.25,0-.81,0-1.64-.22-1.76,1.14-.08,1-1.14.51-1.76.53-.92,0-1.7,0-1.57,1.3.1,1-.73.77-1.32.87-1,.17-2.55-.74-2.61,1.37,0,.42-.71.31-1.12.32-1.27,0-2.55,0-3.82,0-.92.05-2.11-.55-2.32,1.25-.1.84-1.35.24-2,.44-1.27.35-3.51-1.17-3.46,1.81,0,.38-.72.29-1.14.3-.85,0-1.69,0-2.54,0l.06.05a4.1,4.1,0,0,1,.93-2.41c1.22-1.71,2.52-1.36,3.94-1.54.07,0,.19,0,.2,0,1.14-3.13,3.77-1.13,5.67-1.59,1-.24,2.18.18,2-1.56-.08-.72.64-.6,1.1-.61,1.13,0,2.67.46,3.31-.11,1.41-1.23,3.85-1.12,4.41-1.9a3.16,3.16,0,0,1,3.14-1.41c.14,0,.38,0,.4-.08,1.15-3.14,3.79-1,5.68-1.58,1-.29,2.56.53,2.39-1.58-.06-.72.68-.56,1.13-.57,1.34,0,2.69,0,4,0,.87,0,2.1.47,2.09-1.22,0-.57.61-.46,1-.46C121.56,298.84,122.76,298.88,124,298.9Z"/><path class="cls-7" d="M46.1,333.76c0-2.15,1.67-4.09,3.7-3.8s1.84-2.29,3.48-2.24c-.1-1.71,1.17-1.21,2-1.22s1.55-.08,1.42-1.22c-.11-1,.6-.92,1.25-.92l6.35,0-.06-.06c.37,1.49.17,2.47-1.75,2.24-.88-.11-1.91-.39-2.1,1.22-.11.87-1.37.52-2,.41-2.56-.41-4,1-5.12,2.95-.52.9-1.37.41-2.06.47-.89.09-1.92-.19-1.75,1.31.09.83-.52.85-1.11.84H46.05Z"/><path class="cls-4" d="M399.65,4c.14,1.1.05,1.87-1.47,1.77-2.17-.14-4.37-.07-6.55,0-1,0-1.43-.28-1.33-1.31.06-.7-.09-1.43,0-2.11s-.63-2,.67-2c1,0,2.72-1.16,3.19,1.06.21,1,1.18.49,1.8.51.92,0,1.57,0,1.59,1.29,0,1.55,1.4.58,2.11.89Z"/><path class="cls-8" d="M31.07,342.6c0,.93.77,2.06-1.08,2.33-.69.1-1.73,1.57-1.8,1.8-.85,2.61-2.66,1.21-4.1,1.22a1.15,1.15,0,0,0-.2.29l.25-.24c0-1.74,1.77-2,2.63-3.07.17-.21.91-.18.91-.27.05-2.59,2.14-1.63,3.45-2Z"/><path class="cls-1" d="M157.56,410.79c.05-1.29,1.54-1.74,1.8-2.28,1.26-2.54,3.28-1.05,4.88-1.43.47-.11.81.21.76.75s-.37.55-.74.57c-1.42.08-3.22-.52-3.32,1.91a3.76,3.76,0,0,1-1.15.23c-.77.08-1.53.12-2.3.18Z"/><path class="cls-9" d="M402.94,213.14c-.1.24.65,1.46-.65,1.39-.9-.05-2.41.95-2.63-1-.09-.74-.65-.66-1.12-.63-.92.05-1-.48-1-1.21,0-1,.62-.92,1.27-.93a16.45,16.45,0,0,0,2.33,0C402.76,210.54,403.39,211.16,402.94,213.14Z"/><path class="cls-10" d="M341,243.94c-1,0-2,0-3,0-.79,0-.9-.43-.91-1.08s.19-1.05.94-1c1.91,0,3.81,0,5.71,0,.7,0,1,.23,1,1s-.19,1.2-1.05,1.16S341.9,244,341,243.94Z"/><path class="cls-11" d="M71.53,320.86c.33,1.31,0,1.94-1.52,1.82-1-.07-2-.44-2.45,1.32-.2.83-2.12.28-3.28.27l.06.06a5.18,5.18,0,0,1,1-1.79c1.72-2.69,4.21-1.13,6.27-1.63Z"/><path class="cls-12" d="M403.16,11.31c1.41-.27,2,.13,2.1,1.81.05,1.92-1.11,1.45-2.16,1.56-1.38.15-1.79-.35-1.78-1.74S401.73,11,403.16,11.31Z"/><path class="cls-12" d="M73.36,318.84c-.1-.95-.23-1.91,1.25-1.73.19,0,.56-.06.57-.13.45-2.56,2.38-1.31,3.75-1.47l-.05-.05c.2,1.18-1.26,1.52-1.35,1.85-.77,2.72-2.82,1.09-4.22,1.47Z"/><path class="cls-13" d="M36.61,339.23c.41,1.21-1,1.49-1.13,1.87-.89,2.67-2.92,1.18-4.41,1.5l.06,0c.31-.68.12-1.81,1.46-1.6.22,0,.7-.16.71-.28.25-2.5,2.13-1.26,3.36-1.49Z"/><path class="cls-14" d="M7.46,357.42a4.27,4.27,0,0,1-3.83,3.51c-1,0-1.87,0-1.84,1.37,0,.5-.36.71-.86.69s-.66-.35-.77-.81c-.48-2,.08-2.83,2.11-2.94.76,0,1.36,0,1.8-1,.66-1.48,2.3-.36,3.42-.8Z"/><path class="cls-1" d="M7.49,357.45c-.18-1.53.48-2.12,2-1.89a9,9,0,0,0,1.64-.05l0,0c.14,3.17-2.38,1.39-3.64,1.94Z"/><path class="cls-15" d="M40.54,337.08c.34,1.7-.26,2.47-2.06,2.18a11.64,11.64,0,0,0-1.87,0l0,0c-.22-3.52,2.44-1.76,3.93-2.14Z"/><path class="cls-3" d="M24.09,348c-.25,2.48-.52,2.66-2.88,2.19-.59-.12-.89-.31-.89-.92s.35-.82.93-.88c1-.09,2,.29,2.89-.34Z"/><path class="cls-16" d="M415.85,225.74c-.11.68.15,1.71-.8,1.73-1.14,0-.88-1.08-.88-1.79s-.26-1.86.85-1.81S415.7,225.05,415.85,225.74Z"/><path class="cls-9" d="M353.78,258.41c.72.09,1.62-.31,1.66,1s-.94,1.11-1.71,1.11-1.77.37-1.73-1.09S353.11,258.58,353.78,258.41Z"/><path class="cls-16" d="M249.07,379.15h-3.45c-.34-.3-1-.21-1.17-.94a16.32,16.32,0,0,1,5.66-.09C250,378.89,249.39,378.84,249.07,379.15Z"/><path class="cls-7" d="M401.31,7.63c.35-.64-.54-2,1-1.84,1.68.18.42,1.87,1.1,2.75.41.52-.44,1-1.16,1C400.7,9.46,401.7,8.24,401.31,7.63Z"/><path class="cls-11" d="M399.7,4.05c0-1,0-2.09,0-3.13,0-.38.13-.71.57-.69s.89.08.93.22a7.75,7.75,0,0,1,.44,3c-.17.92-1.25.57-2,.58Z"/><path class="cls-17" d="M406.47,248.16c0,.58,0,.93,0,1.28s0,1-.57,1c-.69,0-.64-.61-.68-1.08a4.61,4.61,0,0,1,0-1.05c.14-.76-.35-2.12.67-2.08S406.19,247.64,406.47,248.16Z"/><path class="cls-3" d="M419.75,64.45c-.57-.17-1.52.34-1.68-.43a10.35,10.35,0,0,1,.06-3.14c.05-.39.59-.26.93-.25.6,0,.59.49.6.91,0,1,0,2,0,3Z"/><path class="cls-14" d="M11.13,355.51c.16-.52-.13-1.24.4-1.55a3.52,3.52,0,0,1,2.63-.1c.39.09.46.55.35.88-.34,1.05-1.27.54-1.95.66a14.13,14.13,0,0,1-1.46.08Z"/><path class="cls-9" d="M419.69,64.51c.57,0,1.41-.41,1.58.41a7.69,7.69,0,0,1-.07,2.66c-.05.37-.58.24-.91.24a.58.58,0,0,1-.61-.67c0-.9,0-1.8.07-2.7Z"/><path class="cls-18" d="M399.24,265.6c-.07.72,0,1.54-.86,1.51s-.82-.83-.8-1.44-.05-1.44.83-1.43S399.07,265.14,399.24,265.6Z"/><path class="cls-19" d="M422.1,207.61c.83.07.9.65.92,1.21s0,1.21-.74,1.29-.82-.45-.85-1S421.39,207.88,422.1,207.61Z"/><path class="cls-10" d="M243.91,219c.13.88-.21,1.19-1,1.19s-1.08-.34-1.07-1.13.22-1,1-1S244.11,218,243.91,219Z"/><path class="cls-20" d="M430.74,188.66c.1-.5-.1-1.32.65-1.29s.57.82.58,1.34.14,1.31-.63,1.29S430.81,189.18,430.74,188.66Z"/><path class="cls-21" d="M413.69,230.93c0,.49.06,1.19-.58,1.18-.81,0-.66-.78-.63-1.31s-.15-1.35.65-1.27S413.6,230.42,413.69,230.93Z"/><path class="cls-17" d="M430.28,192.44c-.08.44,0,1.09-.72,1s-.52-.73-.48-1.19,0-1.12.69-1S430.2,192,430.28,192.44Z"/><path class="cls-22" d="M46.05,333.7a7.25,7.25,0,0,1,0,1c-.1,1-.9.61-1.45.65S44,335,44,334.55c0-.83.51-.85,1.09-.83l1,0Z"/><path class="cls-15" d="M73.31,318.78c.07,1.26.29,2.64-1.77,2.08l0,.05c0-1.21-.14-2.51,1.77-2.07Z"/><path class="cls-23" d="M105.31,309.26a.62.62,0,0,1-.71-.57.64.64,0,0,1,1.27-.15C105.93,308.94,105.69,309.17,105.31,309.26Z"/><path class="cls-10" d="M395.82,262.21c-.15.59.48,1.47-.61,1.7-.32.07-.76.12-.93-.24a1.29,1.29,0,0,1-.06-1c.35-.76,1.09-.3,1.65-.41Z"/><path class="cls-6" d="M395.87,262.26c.13-.59-.48-1.45.6-1.68.33-.07.77-.12.93.24a1.37,1.37,0,0,1,.07,1c-.35.77-1.08.32-1.65.4Z"/><path class="cls-24" d="M418,215.52c0,.7-.41.78-1,.77s-.7-.32-.72-.8.23-.89.86-.88S418,214.92,418,215.52Z"/><path class="cls-25" d="M40.59,337.14c.14-.59-.49-1.48.6-1.68a1.1,1.1,0,0,1,.92.24,1.12,1.12,0,0,1,.08,1c-.35.78-1.09.32-1.65.4Z"/><path class="cls-24" d="M419.64,209.94c0,.81-.45.83-1,.82-.73,0-.69-.55-.67-1s.43-.63.88-.64C419.53,209.07,419.73,209.43,419.64,209.94Z"/><path class="cls-26" d="M426.1,194.16c-.62.06-.9-.2-.9-.84s.3-.86.91-.83.77.2.78.74S426.79,194.22,426.1,194.16Z"/><path class="cls-27" d="M414.12,191.64c.05.65-.29.84-.9.83s-.79-.4-.78-1,.3-.71.8-.73S414.18,191,414.12,191.64Z"/><path class="cls-28" d="M318.78,212.88c-.64.16-1.7-.42-1.66.94,0,.9-.62.77-1.16.77-2.89,0-5.79-.15-8.66.07-1.63.13-1-2.38-2.64-1.83a2.78,2.78,0,0,0-1.94-2.59c-.15-.05-.16-1.06.26-1.06,1.94,0,1.37-1.4,1.35-2.38a2.24,2.24,0,0,1,1.09-2.31,12,12,0,0,0,3.2-2.72c.45,0,1.25.3,1.19-.38-.19-2.19,1.31-1.66,2.47-1.68,1.62,0,3.24,0,4.86,0,1,0,1.9-.09,1.71,1.34-.05.36.06.8.52.75,2-.23,1.56,1.22,1.58,2.32,0,1.41,0,2.82,0,4.23,0,1.14.56,2.56-1.63,2.56C318.39,210.89,319.06,212.22,318.78,212.88Z"/><path class="cls-28" d="M324.31,137.56c0,.78.05,1.55.05,2.33a2.15,2.15,0,0,1-.93,1.68c-1.06,1-3.16,1.77-2.51,4.05.2.67,0,1.42,1.07,1.37.74,0,.66.58.65,1.07s-.5.59-.91.59c-1.28,0-2.56-.07-3.82,0-1,.09-2.42-.74-2.7,1.34-.06.45-1.93.48-2.34,1.88-.1.34-2.37.66-2.77-.24-.32-.69-1.23-2.38.77-3.09.94-.33,1.29-1.65,2.33-2.24.45-.26.24-1.71-1.11-1.49-1.71.26-2.53-.29-2.21-2.13.14-.8-.08-1.41-1.11-1.29-.68.08-1.08-.19-1-1s-.09-1.24-1-1.19c-.74,0-.68-.54-.68-1s.44-.64.87-.64h5.52c.47,0,.86.14.82.7-.07.92.48,1,1.2,1s1,.14.93.81.08,1.25,1.08,1.38.45,1.25.62,1.92-.29,1.35.78,1.41.89-.82.91-1.46c0-1,0-2,0-3,0-.39.12-1-.46-1-1.69,0-1.18-1.21-1.2-2.08,0-.49-.33-1.21.54-1.37s1.16.15,1.17,1,.77.63,1.27.64c1.41,0,2.83,0,4.24,0Z"/><path class="cls-29" d="M324.37,137.62c-.1-.75.35-1.83-1.1-1.74-.6,0-.6-.47-.62-.9,0-.28,0-.79-.06-.81-2.65-.69-1.59-2.84-1.57-4.38,0-1.71-.89-1.54-2-1.56s-2-.12-1.94,1.58c.11,2.18-.92,2.79-3.08,2.28a.81.81,0,0,1-.7-1.06c.16-.91-.41-2.7.42-2.6,2,.25,1.5-2.53,3.23-2.1.22-2.52,2.21-1,3.35-1.51,2.19-.89,2.33,2,4,2.15.11,0,.29,1.29-.75,1.27-.82,0-.88.46-.89,1.09s.42.76.87,1.12c.94.74,2.35,1.38,2.76,2.14.63,1.15.35,2.91.13,4.36-.18,1.24-1.37.43-2.1.61Z"/><path class="cls-28" d="M297.09,150.38c3.44,0,3.44,0,3.44-3.46,0-.71,0-1.41,0-2.12l-.06,0c2.15.34,2.8-1.53,3.82-2.73.35-.41.53-.69,1.06-.68.75,0,.69.54.69,1,0,1.34,0,2.69,0,4,.05.91-.53,2.05,1.26,2.32.89.14.35,1.6.4,2.46.06,1-.81.77-1.38.78q-3,0-5.94,0c-.87,0-1.76-.12-1.6,1.23.07.59-.2.88-.84.9-.88,0-.85-.53-.85-1.11,0-.92,0-1.84,0-2.76Z"/><path class="cls-28" d="M296.28,181.49c-4.61,0-9.21,0-13.81-.1-.67,0-2,.63-1.89-.87s1.3-.7,2-.77c1.34-.12,2.69,0,4,0,.44,0,1.06.19,1.14-.57s0-1-.81-1.17-1.32-3.09-.67-3.55c.46-.34,1.4-.61,1.43.35.05,1.42,1,1,1.76,1.17,0,1.07-.29,2.37,1.59,2.12.58-.08.56.51.56.92,0,.72.5.72,1,.72.76,0,.64-.58.67-1a3.35,3.35,0,0,1,0-.84c.19-.65-.56-1.68.66-1.89s.86.88,1.08,1.52c.35,1.05,1.31.38,2,.57s1.5-.46,1.77.58-.42,1.09-1.2,1.19C296.66,179.89,297.64,181.62,296.28,181.49Z"/><path class="cls-28" d="M363.5,24.09c-.23-1.5-1.75-3.33,1.05-4.05-.37-1.66,2.18-1.2,2-2.8-.06-.55.61-.41,1-.45s.94,0,.91-.31c-.2-2.43,2.13-1.26,2.69-1.94a20.91,20.91,0,0,1,3.05-2.44c1-.88,1.4-2.84,3.35-2.51l-.06-.06c-.11,1.35,1.08,3.08-1.44,3.67-.59.14-.18,1.82-.22,2.78s-.14,1.57-1.31,1c-.85-.42-1.8-.07-2.69-.22-1.41-.22-1.71.49-1.56,1.67-.73.14-1.79-.28-1.72,1.16,0,.74-.65.55-1.1.59s-1,0-.93.56c.27,1.79-2.28,1.61-2.23,3.23A7.5,7.5,0,0,1,363.5,24.09Z"/><path class="cls-28" d="M414.16,75.46c.13,1.11-.76,1.33-1.33,2-1.09,1.2-2.84,2.43-2.14,4.71.49,1.63-.14,2.7-2.12,2.32,0-1.91.05-3.82,0-5.74,0-.93,0-1.72,1.31-1.54.65.09.83-.3.83-.9s-.45-.75-1-.78c-2.23-.13-.86-1.81-1.09-2.75-.31-1.23.73-1.08,1.49-1.08l2.33,0-.05-.06a18.11,18.11,0,0,1,0,2.33C412.21,75.48,413,75.63,414.16,75.46Z"/><path class="cls-28" d="M357.52,181.45c1.12.16,2.82-.67,3.26.45a8.34,8.34,0,0,1,0,4.57c-.23,1-1.62.22-2.42.55-2.24,0-4.48,0-6.72-.09-.48,0-1.2.31-1.34-.56s.16-1.19,1-1.14c.58,0,.64-.4.67-.84.07-1.35,1.08-.69,1.72-.81l.27.09c1.08,1.14,1.88.87,2.41-.5a3.87,3.87,0,0,1,.83-1.61Z"/><path class="cls-28" d="M289.49,174.14a14.46,14.46,0,0,1,0-2.28c.21-1.43-.54-1.66-1.67-1.52a2.67,2.67,0,0,1,0-.84c.22-.85-.65-2.31.69-2.43,1-.09,2.79-1.22,3.33,1.2.13.56,1.62.79,1.56,2.26C293.22,174.28,293.34,174.28,289.49,174.14Z"/><path class="cls-29" d="M281.67,166.93c-.89,0-1.52,0-2.16,0-.93,0-.62-.74-.63-1.26,1.87.15,1.17-2.35,2.83-2.78a4.18,4.18,0,0,0,2.2-2.43c.2-1,.9-.68,1.46-.72.76,0,.71.56.68,1-.06,1.07.59,2.54-1.52,2.41-.84-.05-.63.85-.57,1.33C284.24,166.54,283.55,167.48,281.67,166.93Z"/><path class="cls-29" d="M306.27,165.25a6.61,6.61,0,0,0-1.26,0c-2.24.43-2.53-.76-2.39-2.6.07-1.06.49-1.47,1.39-1.22,1.36.37,3.5-1.27,4,1.48,0,.12.63.2,1,.18,1,0,.89.62.92,1.27.05.84-.48.88-1.09.87Z"/><path class="cls-28" d="M280.46,170.78c2.9-1.08,3.48-.74,3.48,2.1,0,3.24,0,3.15-2.34,3-1,0-1.09-.59-1.14-1.31Z"/><path class="cls-30" d="M306,172.6a9.81,9.81,0,0,1,1.87-.09c.68.08,1.76-.49,1.95.55.16.87.63,2.22-.34,2.68a3.54,3.54,0,0,1-3-.05c-.94-.64-.19-2.08-.41-3.15Z"/><path class="cls-29" d="M397.51,109.94c-.08.91.58,2.1-1.23,2.25-.84.08-.41,1.19-.41,1.82,0,1-.13,1.65-1.31,1.54-.87-1.81-.26-3.72-.38-5.58l3.39,0Z"/><path class="cls-29" d="M405.09,25.62c0,.76.66,1.87-.5,2.14-1,.22-2.41.59-3-.25s-.2-2-.16-3.08c0-.44.5-.4.85-.4s.76.06.75.53c0,1.78,1.28,1,2.11,1.12Z"/><path class="cls-31" d="M379.53,27.85a2.29,2.29,0,0,1-1.94-3.44.71.71,0,0,1,.66-.38,13.58,13.58,0,0,1,3.12,2.73C381.46,28.43,380.17,27.63,379.53,27.85Z"/><path class="cls-28" d="M353.64,180.57c.72-1.73,2.19-.71,3.27-.77s.46,1.06.61,1.65l.06-.06a5.79,5.79,0,0,0-1.23,1.66c-.66,1.28-1.57,1.45-2.66.47l.05.06C353.71,182.57,353.68,181.57,353.64,180.57Z"/><path class="cls-29" d="M408.63,84.4c0,1.34-.12,2.69,0,4s-.49,1.74-1.71,1.49c0-1.27.08-2.54-.05-3.79C406.73,84.69,407.31,84.22,408.63,84.4Z"/><path class="cls-30" d="M297.15,150.32c-2.06,0-2.66-.76-2.15-2.7.18-.69.6-.65,1.08-.66s1,0,1,.7c0,.9,0,1.81,0,2.72Z"/><path class="cls-29" d="M397.59,16.8l2.11,0c0,.77-.05,1.54,0,2.31s-.19,1.15-1.05,1.14-1.15-.28-1.1-1.1S397.57,17.57,397.59,16.8Z"/><path class="cls-32" d="M397.79,35c.75.3,1.9-.43,1.85.95s-1.27.76-1.94.79-1.95.6-1.82-.91S397.32,35.56,397.79,35Z"/><path class="cls-33" d="M350,38.53c-.64-.29-1.78.51-1.81-.84,0-1.51,1.2-.86,1.87-.86s1.93-.66,1.88.84S350.64,38.15,350,38.53Z"/><path class="cls-29" d="M339.22,42.28c.29,1.38-.25,1.93-1.66,1.75a14.73,14.73,0,0,0-2.1,0l.06.06c-.35-1.3,0-2,1.48-1.81a19.24,19.24,0,0,0,2.28.05Z"/><path class="cls-34" d="M410.72,44.06c.59.12,1.57-.54,1.66.59s.45,2.21-.26,3c-.37.42-1.39.4-1.38-.74,0-1,0-2,0-2.94Z"/><path class="cls-33" d="M328.28,56.9c-.35.76.51,2.07-1,2s-.65-1.32-.71-2-.58-1.73.78-1.74C328.9,55.09,327.75,56.44,328.28,56.9Z"/><path class="cls-29" d="M384.75,9.53c1.3.24,2.7-.4,3.93.45-.11,2.3-1.84,1-2.85,1.24C384.37,11.5,384.9,10.24,384.75,9.53Z"/><path class="cls-30" d="M401.79,95.42c1.63-.11,1.27,1.07,1.28,2s.34,2.09-1.28,2A4.09,4.09,0,0,1,401.79,95.42Z"/><path class="cls-29" d="M400.94,102.65c.86.81.28,1.85.41,2.77.09.57,0,1.12-.81,1.13s-.88-.47-.88-1.09,0-1-.06-1.47C399.52,103,400,102.57,400.94,102.65Z"/><path class="cls-29" d="M304.37,170.35c-.56-.14-1.45.41-1.63-.44a7.93,7.93,0,0,1,.09-2.7c.06-.38.59-.23.93-.23s.59.31.59.69c0,.91,0,1.82-.05,2.74Z"/><path class="cls-35" d="M385.89,88.24c-.8.11-1.13-.21-1.13-1s.34-1.09,1.13-1.07,1,.21,1,1S386.81,88.36,385.89,88.24Z"/><path class="cls-28" d="M416.29,73.33q.46,2.65-2.18,2.19C413.79,73.75,414.53,73,416.29,73.33Z"/><path class="cls-30" d="M409.71,67.85c.87-.13,1,.34,1,1.09s-.37,1-1.13,1-1-.37-1-1.12S408.94,67.74,409.71,67.85Z"/><path class="cls-30" d="M276.63,181.84c2.14-.79,2.18-.76,2.19,1.66C277.52,183.69,276.43,183.62,276.63,181.84Z"/><path class="cls-16" d="M380.33,40.58c-1,.14-1.08-.42-1.09-1.14s.33-.95,1-1,1.14.23,1.13,1.08S381.11,40.76,380.33,40.58Z"/><path class="cls-30" d="M397.12,104.35a1.36,1.36,0,0,1,.06,2.09c-.72.55-1.29-.22-1.75-.79-.17-.53.35-.83.42-1.27l-.05.05Z"/><path class="cls-29" d="M300.52,164.05c0,.7,0,1.2-.81,1.21s-.89-.43-.88-1,0-1.1.83-1.09S300.62,163.5,300.52,164.05Z"/><path class="cls-30" d="M333.7,46.13c-.07.53.3,1.2-.25,1.56a1.63,1.63,0,0,1-1.6,0c-.36-.18-.26-.61-.24-1,.05-.75.64-.59,1.1-.61s.7,0,1.05,0Z"/><path class="cls-30" d="M309.88,167.76c.11.75-.33.93-1,.9s-1.12.07-1.14-.78.33-1,1-.93S309.92,166.87,309.88,167.76Z"/><path class="cls-29" d="M304.3,170.41c2.13-.47,1.85.89,1.68,2.19l0-.07c-1.86.27-1.73-1-1.66-2.18Z"/><path class="cls-29" d="M333.76,46.19c-.12-1.29-.31-2.64,1.76-2.09l-.06-.06c0,1.19.16,2.52-1.76,2.09Z"/><path class="cls-28" d="M383.05,9.59c0-.29,0-.57,0-.85,0-.59-.19-1.31.85-1.31s.81.72.85,1.31l0,.85Z"/><path class="cls-4" d="M277.71,172.84c.94-.33,1.7-.34,2.06.55.24.59-.39.84-.78,1.08s-.67-.18-.63-.46C278.42,173.48,277.85,173.4,277.71,172.84Z"/><path class="cls-29" d="M381.39,11.21c-.32-1.47.46-1.82,1.72-1.68C383.26,10.83,382.86,11.57,381.39,11.21Z"/><path class="cls-29" d="M406.88,24c.28,1.5-.33,2-1.79,1.64l.06.05c-.18-1.39.43-1.92,1.79-1.63Z"/><path class="cls-33" d="M276.69,175.84l-1.26.12a1,1,0,0,1-.18-1.61c.13-.18.68-.21,1-.11C277.09,174.52,276.56,175.29,276.69,175.84Z"/><path class="cls-30" d="M300.55,144.8c-.59-.13-1.48.51-1.68-.6a1.12,1.12,0,0,1,.24-.93,1.18,1.18,0,0,1,1-.07c.79.35.32,1.08.39,1.65Z"/><path class="cls-33" d="M395.85,104.38c-.59-.12-1.46.5-1.69-.6-.06-.32-.11-.77.25-.93a1.34,1.34,0,0,1,1-.06c.78.35.32,1.07.39,1.64Z"/><path class="cls-28" d="M418,71.63c.2,1.38-.38,2-1.76,1.76C416,72,416.61,71.42,418,71.63Z"/><path class="cls-29" d="M412.47,71.71c.13-.6-.51-1.47.58-1.71.32-.08.77-.14.95.22a1.39,1.39,0,0,1,.07,1c-.33.81-1.09.31-1.65.43Z"/><path class="cls-32" d="M411.61,60.59c-.59.06-.87-.18-.87-.81s.19-.88.82-.88.87.2.87.83S412.24,60.64,411.61,60.59Z"/><path class="cls-30" d="M339.28,42.34c.13-.59-.5-1.49.6-1.69a1.12,1.12,0,0,1,.93.24,1.14,1.14,0,0,1,.07,1c-.35.79-1.09.31-1.66.4Z"/><path class="cls-31" d="M275,178.06c.64.1,1.66-.54,1.66.81s-1,.71-1.66.8Z"/><path class="cls-3" d="M350.31,192.9c-.49-.35-1.62.89-1.63-.62,0-.44.25-.79.83-.62s1.28.35.8,1.24Z"/><path class="cls-36" d="M170.46,283.66c-.28,1.27.38,2.44-1.24,2.46-.87,0-.5.84-.58,1.34-.13.86.48,2.08-1.23,2.09-.68,0-.42.76-.46,1.21-.08.68.34.83.91.83,1.13,0,2.27,0,3.4,0,.54,0,1.16-.13,1.2.77s-.64.91-1.27.91a15.35,15.35,0,0,0-1.92,0c-.94.13-2.19-.65-2.52,1.29-.15.89-1.76.23-2.7.39-1.13.19-2.89-.73-2.72,1.67,0,.54-.62.42-1,.46-1.18.13-2.79-.64-3,1.5,0,.1-.76.16-1.17.2-.9.08-1.9-.37-2.13,1.25-.13.89-1.47.28-2.24.46-1.24.28-3.39-1.05-3.22,1.78-1.65.08-1.84,2.95-4,2.07a1.71,1.71,0,0,0-1.17.15c-.26,2.26-2.45.92-3.09,1.62-1.27,1.38-2.76,1.63-4.35,1.93.2,2.61-1.76,1.62-3,1.79-.59.07-1-.21-.88-.86.06-.44-.22-1.19.49-1.19,1.55,0,1.19-1.05,1.19-1.89s0-1.37,1.21-1.71,2.62-1.86,2.47-2.51a3.88,3.88,0,0,1,2.1-4.14c1.3-.66,1.69-1.67,2.51-2.53,1.18-1.26,3.18-1.89,2.78-4.19-.2-1.15.41-1.68,1.44-1.36,2.22.68,3.15-1.41,3.88-2.41a2.14,2.14,0,0,1,2.07-1c1.05,0,2.25.27,2-1.5-.08-.57.42-.62.87-.62s.77.19.8.73-.27,1.34.8,1.38.9-.67.89-1.28.32-.87.92-.85c.28,0,.78.05.82-.06,1.15-3.14,3.79-1.07,5.67-1.6.85-.24,2,.38,2.05-1.3,0-.65.78-.36,1.24-.37C168.23,282.2,171.14,282.1,170.46,283.66Z"/><path class="cls-36" d="M183.55,223.5a9.66,9.66,0,0,0,0,1.7c.28,1.77-.41,2.47-2.18,2.17-1.25-.22-2,.24-1.64,1.57.58,2.11-1.37,3.15-2.3,3.75-1.93,1.26-3.53,2.26-3.28,4.85.13,1.32-2.34.72-1.85,2.38-1.87.09-2.71,2.78-4.94,2a9.86,9.86,0,0,1-1.89-.1c-.81-.2-2.2.79-2.31-.87-.07-1.05-.76-2.6,1.51-2.63.77,0,1.82-1.57,1.94-1.9a7.55,7.55,0,0,1,3.54-3.76c.23-.14.25-.8.17-1.19-.41-2.2.68-2.55,2.58-2.45,1.14.06,3,.94,3.14-1.42,1.69.44,1.68-1.75,3-1.94.19,0,.52-.15.52-.23C179.63,222.14,182.17,224.05,183.55,223.5Z"/><path class="cls-28" d="M192.49,218a3.83,3.83,0,0,1-3.88,3.85,1.59,1.59,0,0,0-1.87,1.26c-.42,1.07-2.14.23-3.25.48,0-.86.89-1.44,1.09-1.87.91-2,2.41-1.47,3.83-1.59.19,0,.53-.17.53-.25C188.87,216.85,191.19,218.37,192.49,218Z"/><path class="cls-1" d="M302.58,203.65c-.05.46-.18,1-.72.83-.79-.24-1.76-.62-1.83-1.49,0-.36,1.12.21,1.79-.28C302.28,202.38,302.51,203.16,302.58,203.65Z"/><path class="cls-1" d="M324.49,214.42c-.53,1.09-1.7.61-2.43,1.19-.36.29-.7-.35-.7-.76s.56-1.24.73-1C322.76,214.85,323.91,213.45,324.49,214.42Z"/><path class="cls-1" d="M397.74,15.91c-1,.26-1.66,2-2.94.91-.89-.73-.2-1.5,1.16-1.29C396.56,15.63,397.15,15.78,397.74,15.91Z"/><path class="cls-28" d="M377.57,9.59a3.32,3.32,0,0,1,0-.63c.1-.59-.38-1.5.83-1.53.62,0,.82.26.88.86.1,1.05-.35,1.4-1.33,1.26-.14,0-.28,0-.42,0Z"/><path class="cls-28" d="M397.57,110c.05-.54-.29-1.19.22-1.58a1.62,1.62,0,0,1,1.6,0c.37.15.27.6.26.93,0,.75-.62.61-1.09.63s-.7,0-1.05,0Z"/><path class="cls-1" d="M6.75,358.23c-1.45,1.3-2.54,2.7-4.61,2.41-.94-.13-.48,1.19-1,1.62-1-1.91-.72-2.47,1.26-2.59.9-.06,1.75.09,2.18-1.14C4.87,357.63,5.83,358,6.75,358.23Z"/><path class="cls-3" d="M353.69,183.52c.92.07,1.77.25,1.78-1.25s1.4-.56,2.11-.88c0,.56,0,1.13,0,1.69a2.25,2.25,0,0,1-3.4,2.12C353.36,184.82,353.88,184.07,353.69,183.52Z"/><path class="cls-2" d="M165.2,288.54c.11.89-.43.95-1,.93s-1,0-1.05-.71.23-1.05,1-1C164.63,287.81,165.29,287.67,165.2,288.54Z"/></g></g></g></svg>